<?xml version="1.0" encoding="utf-8"?>
<svg width="125px" height="48px" viewBox="0 0 125 48" version="1.1" xmlns:xlink="http://www.w3.org/1999/xlink" xmlns="http://www.w3.org/2000/svg">
  <desc>Created with Lunacy</desc>
  <g fill="#FFFFFF" stroke="#0000FF" stroke-width="2" id="GURVI">
    <path d="M27.06 23.96L27.06 35.66Q24.86 37.28 22.37 38.03Q19.88 38.78 17.04 38.78Q13.5 38.78 10.63 37.68Q7.76 36.58 5.73 34.62Q3.7 32.66 2.6 29.94Q1.5 27.22 1.5 24Q1.5 20.74 2.56 18.02Q3.62 15.3 5.57 13.34Q7.52 11.38 10.3 10.3Q13.08 9.22 16.54 9.22Q18.3 9.22 19.83 9.5Q21.36 9.78 22.67 10.27Q23.98 10.76 25.06 11.46Q26.14 12.16 27.04 13L25.5 15.44Q25.14 16.02 24.56 16.15Q23.98 16.28 23.3 15.86L21.98 15.1Q21.32 14.72 20.51 14.44Q19.7 14.16 18.69 13.98Q17.68 13.8 16.36 13.8Q14.22 13.8 12.49 14.52Q10.76 15.24 9.54 16.58Q8.32 17.92 7.66 19.8Q7 21.68 7 24Q7 26.48 7.71 28.43Q8.42 30.38 9.71 31.73Q11 33.08 12.82 33.79Q14.64 34.5 16.88 34.5Q18.48 34.5 19.74 34.16Q21 33.82 22.2 33.24L22.2 28L18.56 28Q18.04 28 17.75 27.71Q17.46 27.42 17.46 27L17.46 23.96L27.06 23.96ZM43.9 34.12Q45.46 34.12 46.69 33.6Q47.92 33.08 48.76 32.14Q49.6 31.2 50.05 29.86Q50.5 28.52 50.5 26.86L50.5 9.54L55.88 9.54L55.88 26.86Q55.88 29.44 55.05 31.63Q54.22 33.82 52.67 35.41Q51.12 37 48.9 37.89Q46.68 38.78 43.9 38.78Q41.1 38.78 38.88 37.89Q36.66 37 35.11 35.41Q33.56 33.82 32.73 31.63Q31.9 29.44 31.9 26.86L31.9 9.54L37.28 9.54L37.28 26.84Q37.28 28.5 37.73 29.84Q38.18 31.18 39.03 32.13Q39.88 33.08 41.11 33.6Q42.34 34.12 43.9 34.12ZM79.68 38.46L84.54 38.46L77.3 27.78Q76.94 27.22 76.5 26.81Q76.06 26.4 75.54 26.1Q77.06 25.64 78.25 24.84Q79.44 24.04 80.25 22.98Q81.06 21.92 81.49 20.62Q81.92 19.32 81.92 17.86Q81.92 16.02 81.28 14.49Q80.64 12.96 79.29 11.86Q77.94 10.76 75.83 10.15Q73.72 9.54 70.78 9.54L61.96 9.54L61.96 38.46L67.34 38.46L67.34 27.16L69.64 27.16Q70.44 27.16 70.85 27.38Q71.26 27.6 71.6 28.12L77.68 37.38C78.0933 38.1 78.76 38.46 79.68 38.46ZM100.78 38.46L95.92 38.46L84.24 9.54L88.56 9.54Q89.26 9.54 89.7 9.88Q90.14 10.22 90.36 10.76L97.18 28.4Q97.52 29.26 97.83 30.29Q98.14 31.32 98.42 32.44Q98.66 31.32 98.94 30.29Q99.22 29.26 99.56 28.4L106.34 10.76Q106.5 10.3 106.97 9.92Q107.44 9.54 108.12 9.54L112.46 9.54L100.78 38.46ZM115.46 38.46L120.86 38.46L120.86 9.54L115.46 9.54L115.46 38.46ZM73.35 22.92Q72.22 23.3 70.7 23.3L67.34 23.3L67.34 13.7L70.78 13.7Q73.76 13.7 75.21 14.88Q76.66 16.06 76.66 18.26Q76.66 19.36 76.3 20.28Q75.94 21.2 75.21 21.87Q74.48 22.54 73.35 22.92Z" />
  </g>
</svg>